<?xml version="1.0" encoding="utf-8"?>
<!-- Generator: Adobe Illustrator 15.0.2, SVG Export Plug-In . SVG Version: 6.00 Build 0)  -->
<!DOCTYPE svg PUBLIC "-//W3C//DTD SVG 1.1//EN" "http://www.w3.org/Graphics/SVG/1.1/DTD/svg11.dtd">
<svg version="1.1" id="Layer_1" xmlns="http://www.w3.org/2000/svg" xmlns:xlink="http://www.w3.org/1999/xlink" x="0px" y="0px"
	 width="302.667px" height="261.333px" viewBox="0 0 302.667 261.333" enable-background="new 0 0 302.667 261.333"
	 xml:space="preserve">
<path fill-rule="evenodd" clip-rule="evenodd" style="stroke:#ffffff; fill:#ffffff" d="M103.228,84.838c-20.515-8.396-54.376-6.12-78.814-3.503
	c-0.919-5.003-0.573-11.27-1.001-16.764c-3.42,0-6.839,0-10.259,0c-0.314,0.103-0.512,0.323-0.5,0.751c0,6.588,0,13.177,0,19.766
	c-3.52,1.651-7.989,2.354-10.259,5.255c3.174,0.732,6.866-0.123,10.259,0c0,35.612,0,71.225,0,106.838
	c-6.99,15.496-2.562,40.535,4.254,52.793c-0.446-2.891-1.037-5.635-1.252-8.756c-1.81-22.078,6.034-34.5,18.766-42.035
	c20.236-9.039,42.939-10.537,65.696-17.055c23.02-6.34,45-20,46-51.5C143.224,101.88,124.452,92.888,103.228,84.838z M54.939,159.9
	c-7.603,10.664-19.602,18.264-30.775,24.52c-0.813-29.713-0.646-61.327,0.25-90.825c-0.021-0.354-0.042-0.708,0.25-0.75
	c15.139,2.793,24.498,11.364,31.776,22.018C62.915,126.648,62.418,149.709,54.939,159.9z"/>
<g style="stroke:#ffffff; fill:#ffffff">
	<path fill-rule="evenodd" clip-rule="evenodd" d="M241.884,2.693c-0.378,0.118-8.896,2.803-14.517,7.936
		c-5.75,5.25-7.817,14.424-7.817,14.424l-0.308,0.308c29.141,25.599,47.568,63.116,47.568,104.861
		c0,41.353-18.084,78.555-46.75,104.134c0.711,2.395,3.024,9.04,8.057,14.273c6.25,6.5,14.693,7.812,14.693,7.812l0.245,0.245
		c34.246-31.388,55.755-76.46,55.755-126.465C298.811,79.649,276.811,34.122,241.884,2.693z"/>
	<path fill-rule="evenodd" clip-rule="evenodd" d="M170.554,73.553c-1.925,0.413-8.098,2.07-12.687,7.076
		c-4.492,4.901-5.864,10.082-6.217,11.817c9.272,9.777,14.959,24.683,14.959,37.776c0,11.365-4.92,25.424-12.723,36.239
		c-0.148,0.205-0.303,0.401-0.453,0.604l0.126,0.126c0,0,0.058,5.188,5.808,11.188s12.435,7.054,12.435,7.054l0.268,0.268
		c16.174-13.095,26.54-33.095,26.54-55.479C198.61,107.147,187.593,86.607,170.554,73.553z"/>
	<path fill-rule="evenodd" clip-rule="evenodd" d="M193.618,43.629c-4.569,4.243-7.475,13.424-7.989,15.145
		c20.694,16.943,33.926,42.678,33.926,71.448c0,28.155-12.675,53.403-32.613,70.35l0.111,0.111c0,0,1.565,8.696,7.565,14.946
		s14.814,7.435,14.814,7.435l0.179,0.179c25.709-22.791,41.943-56.043,41.943-93.021c0-37.54-16.727-71.245-43.117-94.058
		l-0.146,0.145C208.292,36.309,200.618,37.129,193.618,43.629z"/>
</g>
</svg>
